<?xml version="1.0" standalone="no"?>
<!DOCTYPE svg PUBLIC "-//W3C//DTD SVG 20010904//EN"
 "http://www.w3.org/TR/2001/REC-SVG-20010904/DTD/svg10.dtd">
<svg version="1.0" xmlns="http://www.w3.org/2000/svg"
 width="900.000000pt" height="901.000000pt" viewBox="0 0 900.000000 901.000000"
 preserveAspectRatio="xMidYMid meet">
<metadata>
Created by potrace 1.16, written by Peter Selinger 2001-2019
</metadata>
<g transform="translate(0.000000,901.000000) scale(0.100000,-0.100000)"
fill="#000000" stroke="none">
<path d="M840 5423 c0 -1911 4 -2925 10 -2998 40 -425 204 -814 482 -1142 365
-432 884 -687 1469 -723 213 -13 3072 -13 3272 0 186 12 217 16 351 46 589
131 1107 538 1389 1091 99 196 168 411 204 643 17 106 18 206 18 1220 l0 1105
-622 5 -623 5 690 1353 690 1353 0 465 0 464 -510 0 -510 0 0 -336 0 -336
-373 -732 c-206 -402 -706 -1382 -1112 -2178 l-737 -1448 -352 0 -351 0 -271
533 c-150 292 -648 1271 -1108 2173 l-836 1642 0 341 0 341 -585 0 -585 0 0
-2887z m1767 -1228 c387 -759 768 -1507 846 -1662 l142 -283 980 0 980 0 309
608 c170 334 313 613 319 620 7 9 103 12 418 12 l409 0 0 -447 c0 -247 -5
-488 -10 -538 -26 -230 -118 -428 -275 -594 -156 -165 -328 -261 -538 -302
-94 -18 -166 -19 -1762 -19 -1410 0 -1674 2 -1732 14 -406 86 -720 400 -802
803 -21 100 -21 124 -21 1638 0 1427 1 1536 17 1533 10 -2 260 -480 720 -1383z"/>
</g>
</svg>
