<?xml version="1.0" standalone="no"?>
<!DOCTYPE svg PUBLIC "-//W3C//DTD SVG 20010904//EN"
 "http://www.w3.org/TR/2001/REC-SVG-20010904/DTD/svg10.dtd">
<svg version="1.0" xmlns="http://www.w3.org/2000/svg"
 width="900.000000pt" height="901.000000pt" viewBox="0 0 900.000000 901.000000"
 preserveAspectRatio="xMidYMid meet">
<metadata>
Created by potrace 1.16, written by Peter Selinger 2001-2019
</metadata>
<g transform="translate(0.000000,901.000000) scale(0.100000,-0.100000)"
fill="#000000" stroke="none">
<path d="M1865 4000 c0 -795 1 -1120 2 -723 2 398 2 1048 0 1445 -1 398 -2 73
-2 -722z"/>
<path d="M7405 4663 l625 -3 3 -1043 2 -1042 0 1045 0 1045 -628 0 -627 0 625
-2z"/>
<path d="M3618 1583 c453 -2 1191 -2 1640 0 449 1 79 2 -823 2 -902 0 -1270
-1 -817 -2z"/>
<path d="M3668 553 c424 -2 1120 -2 1545 0 424 1 77 2 -773 2 -850 0 -1197 -1
-772 -2z"/>
</g>
</svg>
