<?xml version="1.0" standalone="no"?>
<!DOCTYPE svg PUBLIC "-//W3C//DTD SVG 20010904//EN"
 "http://www.w3.org/TR/2001/REC-SVG-20010904/DTD/svg10.dtd">
<svg version="1.0" xmlns="http://www.w3.org/2000/svg"
 width="48.000000pt" height="48.000000pt" viewBox="0 0 48.000000 48.000000"
 preserveAspectRatio="xMidYMid meet">
<metadata>
Created by potrace 1.16, written by Peter Selinger 2001-2019
</metadata>
<g transform="translate(0.000000,48.000000) scale(0.100000,-0.100000)"
fill="#000000" stroke="none">
<path d="M130 420 c-30 -30 -28 -128 5 -198 35 -76 82 -141 118 -163 92 -55
175 19 115 103 -19 28 -25 30 -64 24 -38 -5 -45 -2 -64 21 -33 42 -36 71 -10
98 19 20 22 32 17 65 -3 22 -11 47 -17 55 -18 22 -76 19 -100 -5z"/>
</g>
</svg>
